<svg xmlns="http://www.w3.org/2000/svg" width="100" height="100" viewBox="0 0 100 100">
  <title>galaxy</title>
  <defs>
    <clipPath id="clip">
      <polygon points="20,10 20,90 90,50"/>
    </clipPath>
  </defs>
  <g clip-path="url(#clip)">
    <rect x="0" y="0" width="100" height="100" fill="#2b2b2b"/>
    <defs><linearGradient id="g1" x1="0" y1="0" x2="1" y2="1"><stop offset="0%" stop-color="#4b2b7f"/><stop offset="100%" stop-color="#0e6aa8"/></linearGradient></defs><rect x="0" y="0" width="100" height="100" fill="url(#g1)"/><circle cx="33" cy="26" r="0.6" fill="#fff" opacity="0.9"/><circle cx="60" cy="24" r="1.0" fill="#fff" opacity="0.9"/><circle cx="75" cy="34" r="0.8" fill="#fff" opacity="0.9"/><circle cx="16" cy="8" r="0.8" fill="#fff" opacity="0.9"/><circle cx="94" cy="67" r="0.8" fill="#fff" opacity="0.9"/><circle cx="85" cy="9" r="1.2" fill="#fff" opacity="0.9"/><circle cx="62" cy="2" r="1.0" fill="#fff" opacity="0.9"/><circle cx="22" cy="3" r="0.6" fill="#fff" opacity="0.9"/><circle cx="67" cy="3" r="0.6" fill="#fff" opacity="0.9"/><circle cx="73" cy="100" r="0.6" fill="#fff" opacity="0.9"/><circle cx="47" cy="5" r="1.0" fill="#fff" opacity="0.9"/><circle cx="49" cy="4" r="1.2" fill="#fff" opacity="0.9"/><circle cx="33" cy="64" r="1.2" fill="#fff" opacity="0.9"/><circle cx="80" cy="75" r="0.8" fill="#fff" opacity="0.9"/><circle cx="63" cy="82" r="1.2" fill="#fff" opacity="0.9"/><circle cx="47" cy="55" r="1.0" fill="#fff" opacity="0.9"/><circle cx="99" cy="77" r="1.0" fill="#fff" opacity="0.9"/><circle cx="9" cy="37" r="0.8" fill="#fff" opacity="0.9"/><circle cx="67" cy="12" r="1.2" fill="#fff" opacity="0.9"/><circle cx="97" cy="1" r="1.0" fill="#fff" opacity="0.9"/><circle cx="27" cy="72" r="1.0" fill="#fff" opacity="0.9"/><circle cx="93" cy="91" r="0.6" fill="#fff" opacity="0.9"/><circle cx="12" cy="40" r="1.2" fill="#fff" opacity="0.9"/><circle cx="59" cy="90" r="1.2" fill="#fff" opacity="0.9"/><circle cx="35" cy="4" r="1.2" fill="#fff" opacity="0.9"/><circle cx="54" cy="44" r="0.6" fill="#fff" opacity="0.9"/><circle cx="4" cy="50" r="0.6" fill="#fff" opacity="0.9"/><circle cx="37" cy="97" r="0.6" fill="#fff" opacity="0.9"/><circle cx="46" cy="88" r="0.6" fill="#fff" opacity="0.9"/><circle cx="4" cy="98" r="0.6" fill="#fff" opacity="0.9"/><circle cx="80" cy="94" r="0.8" fill="#fff" opacity="0.9"/><circle cx="92" cy="27" r="1.0" fill="#fff" opacity="0.9"/><circle cx="56" cy="83" r="0.6" fill="#fff" opacity="0.9"/><circle cx="59" cy="42" r="1.0" fill="#fff" opacity="0.9"/><circle cx="65" cy="11" r="0.8" fill="#fff" opacity="0.9"/><circle cx="55" cy="38" r="1.0" fill="#fff" opacity="0.9"/><circle cx="100" cy="28" r="1.2" fill="#fff" opacity="0.9"/><circle cx="33" cy="57" r="0.6" fill="#fff" opacity="0.9"/><circle cx="64" cy="36" r="0.8" fill="#fff" opacity="0.9"/><circle cx="36" cy="100" r="1.0" fill="#fff" opacity="0.9"/>
  </g>
  <polygon points="20,10 20,90 90,50" fill="none" stroke="#1b1b1b" stroke-width="6" stroke-linejoin="round"/>
</svg>