<svg xmlns="http://www.w3.org/2000/svg" width="100" height="100" viewBox="0 0 100 100">
  <title>ice</title>
  <defs>
    <clipPath id="clip">
      <polygon points="20,10 20,90 90,50"/>
    </clipPath>
  </defs>
  <g clip-path="url(#clip)">
    <rect x="0" y="0" width="100" height="100" fill="#7bd3ff"/>
    <rect x="0" y="0" width="100" height="100" fill="#7bd3ff"/><line x1="35" y1="35" x2="41.00" y2="35.00" stroke="#e6f7ff" stroke-width="1.2"/><line x1="35" y1="35" x2="38.00" y2="40.20" stroke="#e6f7ff" stroke-width="1.2"/><line x1="35" y1="35" x2="32.00" y2="40.20" stroke="#e6f7ff" stroke-width="1.2"/><line x1="35" y1="35" x2="29.00" y2="35.00" stroke="#e6f7ff" stroke-width="1.2"/><line x1="35" y1="35" x2="32.00" y2="29.80" stroke="#e6f7ff" stroke-width="1.2"/><line x1="35" y1="35" x2="38.00" y2="29.80" stroke="#e6f7ff" stroke-width="1.2"/><line x1="55" y1="55" x2="60.00" y2="55.00" stroke="#e6f7ff" stroke-width="1.2"/><line x1="55" y1="55" x2="57.50" y2="59.33" stroke="#e6f7ff" stroke-width="1.2"/><line x1="55" y1="55" x2="52.50" y2="59.33" stroke="#e6f7ff" stroke-width="1.2"/><line x1="55" y1="55" x2="50.00" y2="55.00" stroke="#e6f7ff" stroke-width="1.2"/><line x1="55" y1="55" x2="52.50" y2="50.67" stroke="#e6f7ff" stroke-width="1.2"/><line x1="55" y1="55" x2="57.50" y2="50.67" stroke="#e6f7ff" stroke-width="1.2"/><line x1="45" y1="70" x2="49.00" y2="70.00" stroke="#e6f7ff" stroke-width="1.2"/><line x1="45" y1="70" x2="47.00" y2="73.46" stroke="#e6f7ff" stroke-width="1.2"/><line x1="45" y1="70" x2="43.00" y2="73.46" stroke="#e6f7ff" stroke-width="1.2"/><line x1="45" y1="70" x2="41.00" y2="70.00" stroke="#e6f7ff" stroke-width="1.2"/><line x1="45" y1="70" x2="43.00" y2="66.54" stroke="#e6f7ff" stroke-width="1.2"/><line x1="45" y1="70" x2="47.00" y2="66.54" stroke="#e6f7ff" stroke-width="1.2"/>
  </g>
  <polygon points="20,10 20,90 90,50" fill="none" stroke="#3b95ba" stroke-width="6" stroke-linejoin="round"/>
</svg>