<svg xmlns="http://www.w3.org/2000/svg" width="100" height="100" viewBox="0 0 100 100">
  <title>hazard</title>
  <defs>
    <clipPath id="clip">
      <polygon points="20,10 20,90 90,50"/>
    </clipPath>
  </defs>
  <g clip-path="url(#clip)">
    <rect x="0" y="0" width="100" height="100" fill="#222"/>
    <rect x="-40" y="-20" width="12" height="160" transform="rotate(35, -40, 50)" fill="#000" />
<rect x="-22" y="-20" width="12" height="160" transform="rotate(35, -22, 50)" fill="#f6c81a" />
<rect x="-4" y="-20" width="12" height="160" transform="rotate(35, -4, 50)" fill="#000" />
<rect x="14" y="-20" width="12" height="160" transform="rotate(35, 14, 50)" fill="#f6c81a" />
<rect x="32" y="-20" width="12" height="160" transform="rotate(35, 32, 50)" fill="#000" />
<rect x="50" y="-20" width="12" height="160" transform="rotate(35, 50, 50)" fill="#f6c81a" />
<rect x="68" y="-20" width="12" height="160" transform="rotate(35, 68, 50)" fill="#000" />
<rect x="86" y="-20" width="12" height="160" transform="rotate(35, 86, 50)" fill="#f6c81a" />
<rect x="104" y="-20" width="12" height="160" transform="rotate(35, 104, 50)" fill="#000" />
<rect x="122" y="-20" width="12" height="160" transform="rotate(35, 122, 50)" fill="#f6c81a" />
  </g>
  <polygon points="20,10 20,90 90,50" fill="none" stroke="#000" stroke-width="6" stroke-linejoin="round"/>
</svg>