<svg xmlns="http://www.w3.org/2000/svg" width="100" height="100" viewBox="0 0 100 100">
  <title>flame</title>
  <defs>
    <clipPath id="clip">
      <polygon points="20,10 20,90 90,50"/>
    </clipPath>
  </defs>
  <g clip-path="url(#clip)">
    <rect x="0" y="0" width="100" height="100" fill="#1a0f0f"/>
    
  <path d="M20 88 C 30 72 46 66 64 60 C 50 58 38 52 28 40 C 24 52 22 70 20 88 Z"
        fill="#ff4d00" opacity="0.95"/>
  <path d="M20 82 C 32 68 48 62 66 56 C 52 54 40 48 30 38 C 26 50 22 66 20 82 Z"
        fill="#ff9a1f" opacity="0.95"/>
  <path d="M20 76 C 34 64 50 58 70 52 C 54 52 42 46 32 36 C 28 48 22 60 20 76 Z"
        fill="#ffd45a" opacity="0.95"/>

  </g>
  <polygon points="20,10 20,90 90,50" fill="none" stroke="#0d0707" stroke-width="6" stroke-linejoin="round"/>
</svg>